HIERARCHY
ROOT Hips
{
	OFFSET 0.00000 0.00000 0.00000
	CHANNELS 6 Xposition Yposition Zposition Zrotation Yrotation Xrotation 
	JOINT LHipJoint
	{
		OFFSET 0 0 0
		CHANNELS 3 Zrotation Yrotation Xrotation
		JOINT LeftUpLeg
		{
			OFFSET 1.58895 -1.83665 0.71753
			CHANNELS 3 Zrotation Yrotation Xrotation
			JOINT LeftLeg
			{
				OFFSET 2.50528 -6.88321 0.00000
				CHANNELS 3 Zrotation Yrotation Xrotation
				JOINT LeftFoot
				{
					OFFSET 2.63244 -7.23257 0.00000
					CHANNELS 3 Zrotation Yrotation Xrotation
					JOINT LeftToeBase
					{
						OFFSET 0.23691 -0.65090 1.72750
						CHANNELS 3 Zrotation Yrotation Xrotation
						End Site
						{
							OFFSET 0.00000 -0.00000 0.92561
						}
					}
				}
			}
		}
	}
	JOINT RHipJoint
	{
		OFFSET 0 0 0
		CHANNELS 3 Zrotation Yrotation Xrotation
		JOINT RightUpLeg
		{
			OFFSET -1.51435 -1.83665 0.71753
			CHANNELS 3 Zrotation Yrotation Xrotation
			JOINT RightLeg
			{
				OFFSET -2.54551 -6.99375 0.00000
				CHANNELS 3 Zrotation Yrotation Xrotation
				JOINT RightFoot
				{
					OFFSET -2.66027 -7.30903 0.00000
					CHANNELS 3 Zrotation Yrotation Xrotation
					JOINT RightToeBase
					{
						OFFSET -0.22981 -0.63138 2.03959
						CHANNELS 3 Zrotation Yrotation Xrotation
						End Site
						{
							OFFSET -0.00000 -0.00000 1.07060
						}
					}
				}
			}
		}
	}
	JOINT LowerBack
	{
		OFFSET 0 0 0
		CHANNELS 3 Zrotation Yrotation Xrotation
		JOINT Spine
		{
			OFFSET -0.02651 1.86275 -0.11152
			CHANNELS 3 Zrotation Yrotation Xrotation
			JOINT Spine1
			{
				OFFSET 0.01019 1.86224 0.04087
				CHANNELS 3 Zrotation Yrotation Xrotation
				JOINT Neck
				{
					OFFSET 0 0 0
					CHANNELS 3 Zrotation Yrotation Xrotation
					JOINT Neck1
					{
						OFFSET -0.01926 1.80512 0.08867
						CHANNELS 3 Zrotation Yrotation Xrotation
						JOINT Head
						{
							OFFSET 0.05516 1.76451 -0.38475
							CHANNELS 3 Zrotation Yrotation Xrotation
							End Site
							{
								OFFSET 0.01592 1.82587 -0.14001
							}
						}
					}
				}
				JOINT LeftShoulder
				{
					OFFSET 0 0 0
					CHANNELS 3 Zrotation Yrotation Xrotation
					JOINT LeftArm
					{
						OFFSET 3.47116 1.51376 0.14491
						CHANNELS 3 Zrotation Yrotation Xrotation
						JOINT LeftForeArm
						{
							OFFSET 4.78095 -0.00000 0.00000
							CHANNELS 3 Zrotation Yrotation Xrotation
							JOINT LeftHand
							{
								OFFSET 3.58615 -0.00000 -0.00000
								CHANNELS 3 Zrotation Yrotation Xrotation
								JOINT LeftFingerBase
								{
									OFFSET 0 0 0
									CHANNELS 3 Zrotation Yrotation Xrotation
									JOINT LeftHandIndex1
									{
										OFFSET 0.65981 -0.00000 0.00000
										CHANNELS 3 Zrotation Yrotation Xrotation
										End Site
										{
											OFFSET 0.53196 -0.00000 0.00000
										}
									}
								}
								JOINT LThumb
								{
									OFFSET 0 0 0
									CHANNELS 3 Zrotation Yrotation Xrotation
									End Site
									{
										OFFSET 0.54008 -0.00000 0.54008
									}
								}
							}
						}
					}
				}
				JOINT RightShoulder
				{
					OFFSET 0 0 0
					CHANNELS 3 Zrotation Yrotation Xrotation
					JOINT RightArm
					{
						OFFSET -3.31725 1.61216 0.35156
						CHANNELS 3 Zrotation Yrotation Xrotation
						JOINT RightForeArm
						{
							OFFSET -4.48913 -0.00000 0.00000
							CHANNELS 3 Zrotation Yrotation Xrotation
							JOINT RightHand
							{
								OFFSET -3.70510 -0.00000 0.00000
								CHANNELS 3 Zrotation Yrotation Xrotation
								JOINT RightFingerBase
								{
									OFFSET 0 0 0
									CHANNELS 3 Zrotation Yrotation Xrotation
									JOINT RightHandIndex1
									{
										OFFSET -0.44914 -0.00000 0.00000
										CHANNELS 3 Zrotation Yrotation Xrotation
										End Site
										{
											OFFSET -0.36211 -0.00000 0.00000
										}
									}
								}
								JOINT RThumb
								{
									OFFSET 0 0 0
									CHANNELS 3 Zrotation Yrotation Xrotation
									End Site
									{
										OFFSET -0.36763 -0.00000 0.36763
									}
								}
							}
						}
					}
				}
			}
		}
	}
}
MOTION
Frames: 8
Frame Time: .0083333
-0.5996 18.1938 5.5234 0 0 0 0 0 0 -21 0 0 0 0 0 0 0 0 0 0 0 0 0 0 21 0 0 0 0 0 0 0 0 0 0 0 0 0 0 0 0 0 0 0 0 0 0 -16 0 0 21 0 0 11 0 0 0 -8 0 0 0 0 0 0 0 0 0 0 0 0 0 0 0 0 0 0 0 0 8 0 0 0 0 0 0 0 0 0 0 0 0 0 0 0 0 0
-0.5996 18.1938 5.5234 -2.1380 -3.8139 4.3947 0.0000 0.0000 0.0000 -12.5623 -5.8325 12.3826 0.2683 -3.3320 -9.2044 -0.5696 16.4303 -16.5076 0.2359 -3.1259 -8.6294 0.0000 0.0000 0.0000 15.4613 0.9934 7.1623 -0.1846 2.7674 -7.6319 -0.2354 -7.1386 -14.4292 -0.0345 -1.1987 3.2956 1.0437 1.7687 -2.1913 -0.1090 2.3546 -4.0907 -0.7045 1.1438 -2.9273 -1.8391 -2.9243 -9.5245 4.7010 -4.8783 23.1340 1.3935 -1.9730 8.9616 -0.0000 0.0000 0.0000 -90.4338 14.4457 29.8977 20.4624 -31.1954 -5.7689 -0.0000 -0.0000 3.4628 7.2136 -23.3362 -2.8703 -7.1250 0.0000 -0.0000 -13.5748 7.0118 12.1716 -0.0000 0.0000 0.0000 92.1318 -21.1500 23.1993 -24.2517 35.4293 -7.8520 0.0000 0.0000 14.4873 -10.5659 -37.8849 6.5343 7.1250 -0.0000 -0.0000 31.3639 -65.7454 -16.4199
-0.5990 18.1939 5.5231 -2.1433 -3.7896 4.4367 0.0000 0.0000 0.0000 -12.5492 -5.8695 12.3356 0.2681 -3.3309 -9.2015 -0.5697 16.4260 -16.4973 0.2184 -3.0087 -8.3029 0.0000 0.0000 0.0000 15.4664 0.9836 7.1105 -0.1845 2.7665 -7.6293 -0.2328 -7.1498 -14.4026 -0.0322 -1.1592 3.1870 1.0556 1.7608 -2.2265 -0.1127 2.3435 -4.1006 -0.7138 1.1379 -2.9173 -1.8473 -2.9118 -9.4526 4.7273 -4.8623 23.0724 1.4064 -1.9657 8.9271 0.0000 -0.0000 0.0000 -90.4547 14.4157 29.8732 20.4512 -31.1821 -5.7631 -0.0000 -0.0000 3.4438 7.2457 -23.3881 -2.8892 -7.1250 0.0000 -0.0000 -13.5553 6.9583 12.1676 0.0000 -0.0000 0.0000 92.1425 -21.1473 23.2226 -24.2709 35.4494 -7.8631 0.0000 0.0000 14.4997 -10.7460 -37.9526 6.6574 7.1250 -0.0000 -0.0000 31.2625 -65.8530 -16.4386
-0.5981 18.1942 5.5232 -2.1416 -3.7829 4.4640 0.0000 0.0000 0.0000 -12.5465 -5.8864 12.2991 0.2673 -3.3257 -9.1870 -0.5676 16.4151 -16.5066 0.2063 -2.9241 -8.0676 0.0000 0.0000 0.0000 15.4631 0.9839 7.0841 -0.1849 2.7692 -7.6369 -0.2316 -7.1524 -14.3867 -0.0322 -1.1586 3.1854 1.0665 1.7628 -2.2509 -0.1247 2.3456 -4.0998 -0.7314 1.1386 -2.9019 -1.8539 -2.8993 -9.4279 4.7733 -4.8518 23.0246 1.4244 -1.9578 8.9070 -0.0000 0.0000 0.0000 -90.4627 14.3851 29.8410 20.4479 -31.1782 -5.7614 -0.0000 -0.0000 3.5020 7.3056 -23.4842 -2.9246 -7.1250 0.0000 -0.0000 -13.5192 6.8591 12.1599 -0.0000 0.0000 0.0000 92.1688 -21.1203 23.2383 -24.2766 35.4554 -7.8664 0.0000 0.0000 14.4793 -10.9263 -37.9763 6.7743 7.1250 -0.0000 -0.0000 31.1020 -65.9245 -16.3973
-0.5975 18.1944 5.5240 -2.1351 -3.7737 4.4732 0.0000 0.0000 0.0000 -12.5496 -5.8965 12.2966 0.2676 -3.3277 -9.1925 -0.5726 16.4488 -16.5003 0.2118 -2.9626 -8.1747 0.0000 0.0000 0.0000 15.4568 0.9799 7.0650 -0.1837 2.7607 -7.6133 -0.2347 -7.1395 -14.4203 -0.0340 -1.1911 3.2748 1.0736 1.7670 -2.2573 -0.1460 2.3507 -4.0958 -0.7569 1.1406 -2.8929 -1.8303 -2.9036 -9.4289 4.8002 -4.8677 23.0071 1.4278 -1.9607 8.9020 0.0000 -0.0000 0.0000 -90.4351 14.3772 29.8544 20.4678 -31.2018 -5.7717 -0.0000 -0.0000 3.5342 7.3054 -23.5180 -2.9285 -7.1250 0.0000 -0.0000 -13.5195 6.8262 12.1691 0.0000 -0.0000 0.0000 92.2047 -21.1040 23.2386 -24.2921 35.4717 -7.8754 0.0000 0.0000 14.4850 -10.7793 -38.0474 6.6923 7.1250 -0.0000 -0.0000 31.3542 -65.9411 -16.5537
-0.5973 18.1948 5.5249 -2.1566 -3.7602 4.4828 0.0000 0.0000 0.0000 -12.5245 -5.9070 12.2996 0.2682 -3.3312 -9.2024 -0.5761 16.4760 -16.5032 0.2250 -3.0536 -8.4280 0.0000 0.0000 0.0000 15.4782 0.9751 7.0422 -0.1819 2.7471 -7.5754 -0.2382 -7.1178 -14.4497 -0.0367 -1.2362 3.3990 1.1048 1.7725 -2.2523 -0.1578 2.3577 -4.1027 -0.7868 1.1430 -2.9010 -1.8171 -2.9156 -9.3802 4.8359 -4.8928 22.9531 1.4355 -1.9695 8.8759 -0.0000 0.0000 0.0000 -90.3822 14.4035 29.9761 20.5252 -31.2700 -5.8015 -0.0000 -0.0000 3.3801 7.2755 -23.3479 -2.8965 -7.1250 0.0000 -0.0000 -13.5368 6.9948 12.1401 -0.0000 0.0000 0.0000 92.2283 -21.1206 23.2316 -24.3229 35.5039 -7.8933 0.0000 0.0000 14.5369 -10.6168 -38.2012 6.6124 7.1250 -0.0000 -0.0000 31.7351 -66.0210 -16.8302
-0.5970 18.1953 5.5248 -2.1714 -3.7398 4.5007 0.0000 0.0000 0.0000 -12.5095 -5.9275 12.2910 0.2691 -3.3369 -9.2180 -0.5752 16.4741 -16.5130 0.2281 -3.0741 -8.4852 0.0000 0.0000 0.0000 15.4891 0.9711 6.9957 -0.1792 2.7271 -7.5198 -0.2412 -7.0845 -14.4590 -0.0393 -1.2795 3.5181 1.1085 1.7669 -2.2435 -0.1516 2.3506 -4.1137 -0.7829 1.1393 -2.9176 -1.8293 -2.9144 -9.3603 4.8608 -4.8934 22.9281 1.4461 -1.9690 8.8645 0.0000 -0.0000 0.0000 -90.3608 14.4447 30.1050 20.6025 -31.3614 -5.8417 -0.0000 -0.0000 3.1999 7.2485 -23.1316 -2.8604 -7.1250 0.0000 -0.0000 -13.5525 7.2082 12.0971 0.0000 -0.0000 0.0000 92.1975 -21.1212 23.2823 -24.3371 35.5187 -7.9015 0.0000 0.0000 14.5453 -10.6805 -38.3367 6.6724 7.1250 -0.0000 -0.0000 31.8525 -66.1508 -16.9915
-0.5962 18.1960 5.5255 -2.1690 -3.7343 4.5334 0.0000 0.0000 0.0000 -12.5142 -5.9363 12.2677 0.2704 -3.3450 -9.2407 -0.5776 16.4757 -16.4778 0.2191 -3.0133 -8.3157 0.0000 0.0000 0.0000 15.4792 0.9891 6.9248 -0.1761 2.7029 -7.4527 -0.2463 -7.0428 -14.4917 -0.0417 -1.3183 3.6251 1.0954 1.7603 -2.2757 -0.1488 2.3414 -4.1129 -0.7716 1.1352 -2.8995 -1.8230 -2.9091 -9.4081 4.8561 -4.8873 22.9548 1.4436 -1.9648 8.8822 0.0000 -0.0000 0.0000 -90.3532 14.4494 30.1667 20.6479 -31.4150 -5.8653 -0.0000 -0.0000 3.1595 7.2348 -23.0617 -2.8469 -7.1250 0.0000 -0.0000 -13.5607 7.2775 12.0860 0.0000 -0.0000 0.0000 92.1570 -21.1014 23.3443 -24.3494 35.5316 -7.9087 0.0000 0.0000 14.5497 -10.7086 -38.3957 6.6988 7.1250 -0.0000 -0.0000 31.9040 -66.2074 -17.0623
